<svg version="1.2" baseProfile="tiny" id="All_glyphs"
	 xmlns="http://www.w3.org/2000/svg" xmlns:xlink="http://www.w3.org/1999/xlink" x="0px" y="0px" viewBox="0 0 104.5 105"
	 xml:space="preserve">
<path d="M11.1,30.5c0,7.5,2.5,12.9,7.4,16c4,2.6,8.7,3,11.1,3c0.6,0,1.1,0,1.4,0c0,0-0.8,5,2.9,10l-0.2,0c-6.4,0-27.5,1.3-27.5,18.6
	c0,17.6,19.3,18.5,23.2,18.5c0.3,0,0.5,0,0.5,0c0,0,0.3,0,0.8,0c2.5,0,8.9-0.3,14.9-3.2c7.7-3.8,11.7-10.3,11.7-19.4
	c0-8.8-6-14.1-10.3-17.9c-2.7-2.3-5-4.4-5-6.3c0-2,1.7-3.5,3.8-5.4c3.4-3.1,6.7-7.5,6.7-15.8c0-7.3-0.9-12.2-6.8-15.3
	c0.6-0.3,2.8-0.5,3.8-0.7c3.2-0.4,7.8-0.9,7.8-3.5V8.6h-23C34.2,8.6,11.1,9.4,11.1,30.5z M48.3,75.6c0.4,7-5.6,12.2-14.6,12.9
	C24.5,89.1,16.9,85,16.5,78c-0.2-3.4,1.3-6.7,4.2-9.3c2.9-2.7,7-4.3,11.4-4.6c0.5,0,1-0.1,1.5-0.1C42.1,64,47.8,69,48.3,75.6z
	 M42.3,25.7c2.3,7.9-1.2,16.2-6.6,17.8c-0.6,0.2-1.3,0.3-1.9,0.3c-5,0-9.9-5-11.7-12c-1-3.9-0.9-7.3,0.2-10.6
	c1.2-3.2,3.2-5.4,5.8-6.1c0.6-0.2,1.3-0.3,1.9-0.3C36,14.8,39.9,17.3,42.3,25.7z M81,43V28h-9.5v15h-15v9.5h15v15H81v-15h15V43H81z"
	/>
</svg>
