<svg version="1.2" baseProfile="tiny"
		 xmlns="http://www.w3.org/2000/svg" xmlns:xlink="http://www.w3.org/1999/xlink" x="0px" y="0px" viewBox="0 0 115.5 105"
	 xml:space="preserve">
<path d="M81.9,52.3c0,14.4-11.6,26-26,26c-14.4,0-26-11.6-26-26c0-1.7,0.2-3.4,0.5-5H12.9v34.6c0,7.4,6,13.4,13.4,13.4h59.1
	c7.4,0,13.4-6,13.4-13.4V47.3H81.4C81.7,49,81.9,50.6,81.9,52.3z M85.5,9.3H26.3c-7.4,0-13.4,6-13.4,13.4v14.6h21.8
	c4.7-6.7,12.5-11,21.2-11c8.8,0,16.5,4.3,21.2,11h21.8V22.8C98.9,15.4,92.9,9.3,85.5,9.3z M92,25.9c0,1.3-1.1,2.4-2.4,2.4h-7.2
	c-1.3,0-2.4-1.1-2.4-2.4v-7.2c0-1.3,1.1-2.4,2.4-2.4h7.2c1.3,0,2.4,1.1,2.4,2.4V25.9z M71.9,52.3c0-8.8-7.2-16-16-16
	c-8.8,0-16,7.2-16,16s7.2,16,16,16C64.7,68.3,71.9,61.2,71.9,52.3z"/>
</svg>
