<svg version="1.2" baseProfile="tiny" class="svg_twit"
	 xmlns="http://www.w3.org/2000/svg" xmlns:xlink="http://www.w3.org/1999/xlink" x="0px" y="0px" viewBox="0 0 100 100"
	 xml:space="preserve">
<path d="M98,18.2c-3.4,1.5-7,2.5-10.8,3c3.9-2.3,6.9-6,8.3-10.4c-3.6,2.2-7.7,3.7-12,4.6c-3.4-3.7-8.3-6-13.8-6
	c-10.4,0-18.9,8.5-18.9,18.9c0,1.5,0.2,2.9,0.5,4.3c-15.7-0.8-29.6-8.3-38.9-19.7c-1.6,2.8-2.6,6-2.6,9.5c0,6.5,3.3,12.3,8.4,15.7
	c-3.1-0.1-6-0.9-8.5-2.4c0,0.1,0,0.2,0,0.2c0,9.1,6.5,16.8,15.1,18.5c-1.6,0.4-3.3,0.7-5,0.7c-1.2,0-2.4-0.1-3.6-0.3
	c2.4,7.5,9.4,13,17.6,13.1c-6.5,5.1-14.6,8.1-23.4,8.1c-1.5,0-3-0.1-4.5-0.3c8.4,5.4,18.3,8.5,28.9,8.5c34.7,0,53.7-28.8,53.7-53.7
	c0-0.8,0-1.6-0.1-2.4C92.3,25.3,95.4,22,98,18.2z"/>
</svg>
